# xmcd
#
# Track frame offsets: 
#        150
#        15380
#        35915
#        74255
#        94210
#        108457
#        128375
#        142897
#        158590
#        177122
#
# Disc length: 2834 seconds
#
# Revision: 2
# Processed by: cddbd v1.5PL3 Copyright (c) Steve Scherf et al.
# Submitted via: ExactAudioCopy v0.95a5
#
DISCID=780b100a
DTITLE=George Thorogood and the Destroyers - George Thorogood and the 
DTITLE=Destroyers
DYEAR=1977
DGENRE=Blues
TTITLE0=You Got to Lose
TTITLE1=Madison Blues
TTITLE2=One Bourbon, One Scotch, One Beer
TTITLE3=Kind Hearted Woman
TTITLE4=Can't Stop Lovin'
TTITLE5=Ride on Josephine
TTITLE6=Homesick Boy
TTITLE7=John Hardy
TTITLE8=I'll Change My Style
TTITLE9=Delaware Slide
EXTD=
EXTT0=
EXTT1=
EXTT2=
EXTT3=
EXTT4=
EXTT5=
EXTT6=
EXTT7=
EXTT8=
EXTT9=
PLAYORDER=
